:SAMPLES-PER-SECOND 30
:FULLY-SPECIFIED
:DEGREES
48
root  69.1607 39.8378 -2.53627 167.414 -83.9421 -167.695
RightUpLeg  -1.58701 -8.997 -1.82909
RightLeg  12.2693 -12.0847 3.16708
RightFoot  -10.1088 -0.061622 -0.628113
RightToes  0.00048216 0.542163 -0.142577
Spine  9.69374 -0.527492 10.4478
Spine1  8.38849 0.342777 -0.0607406
HEad  17.8582 2.69205 -6.55689
LeftShoulder1  7.55639 -10.9085 -45.7029
LeftArm  -7.84643 5.98111 -30.1173
LeftForeArm  29.4775 -28.4285 -4.54137
LeftHand  -0.25398 0.0180481 5.50724
RightShoulder  4.7408 7.93212 35.4845
RightArm  -2.65704 -3.62879 30.9904
RightForeArm  -1.80186 21.11 5.07262
RightHand  -0.665338 0.284625 -13.6505
LeftUpLeg  -21.1259 10.5918 0.904412
LeftLeg  39.952 5.82724 5.6037
LeftFoot  -5.081 0.208534 -3.26112
LeftToes  1.06246e-005 4.65856e-005 -8.18505e-006
49
root  68.2519 39.8969 -2.69619 173.367 -84.8652 -173.325
RightUpLeg  0.403455 -8.898 -2.56159
RightLeg  10.7368 -12.9221 3.25986
RightFoot  -10.7319 -0.0724473 -0.122581
RightToes  0.00048216 0.542163 -0.142577
Spine  9.31226 -0.232689 10.3722
Spine1  8.49725 0.820944 -1.23354
HEad  17.2669 1.75302 -6.07525
LeftShoulder1  7.45693 -10.8214 -45.3634
LeftArm  -8.29674 7.03923 -29.3355
LeftForeArm  28.5742 -26.6287 -4.18826
LeftHand  -0.25398 0.0180481 5.50724
RightShoulder  4.84468 8.14499 35.6156
RightArm  -2.81262 -2.85505 30.9086
RightForeArm  -3.38567 23.0754 5.14481
RightHand  -0.679002 0.301074 -13.8852
LeftUpLeg  -22.1868 12.471 -0.963684
LeftLeg  30.657 5.29235 3.78618
LeftFoot  -3.58875 0.329946 -4.49273
LeftToes  1.06246e-005 4.65856e-005 -8.18505e-006
50
root  67.2876 39.9008 -2.83376 177.651 -85.4086 -177.463
RightUpLeg  2.53122 -8.90012 -2.9609
RightLeg  9.44591 -13.4395 3.27433
RightFoot  -11.5001 -0.0782833 -0.172782
RightToes  0.00048216 0.542163 -0.142577
Spine  8.86014 0.0766641 10.4553
Spine1  9.07372 1.35995 -2.34309
HEad  16.3276 0.904319 -5.67487
LeftShoulder1  7.41811 -10.8068 -45.1662
LeftArm  -8.81457 8.05448 -28.6725
LeftForeArm  27.2904 -24.2246 -3.76385
LeftHand  -0.25398 0.0180481 5.50724
RightShoulder  4.9962 8.43368 35.8746
RightArm  -3.24632 -1.95054 30.7306
RightForeArm  -3.97337 24.6532 5.47197
RightHand  -0.700294 0.377683 -14.1374
LeftUpLeg  -22.4478 15.5384 -3.02263
LeftLeg  20.6446 3.19359 1.62476
LeftFoot  0.00696422 0.496639 -5.05309
LeftToes  1.06246e-005 4.65856e-005 -8.18505e-006
51
root  66.2616 39.8281 -2.95629 -179.146 -85.9689 179.164
RightUpLeg  4.94116 -8.85912 -3.31518
RightLeg  8.57595 -13.639 3.23221
RightFoot  -12.7076 -0.081951 0.251249
RightToes  0.00048216 0.542163 -0.142577
Spine  8.78146 0.311417 10.3422
Spine1  9.58644 1.81821 -3.13889
HEad  15.4545 0.508324 -5.4469
LeftShoulder1  7.46266 -10.8913 -45.1715
LeftArm  -9.23829 9.01481 -28.029
LeftForeArm  25.5604 -21.0496 -3.60353
LeftHand  -0.25398 0.0180481 5.50724
RightShoulder  5.11803 8.67854 36.0301
RightArm  -3.80845 -1.23091 30.7902
RightForeArm  -3.46283 25.8991 5.73752
RightHand  -0.690984 0.330985 -14.0637
LeftUpLeg  -22.0107 16.4587 -4.02189
LeftLeg  12.4261 3.87001 -0.463404
LeftFoot  2.78052 0.474247 -3.95446
LeftToes  1.06246e-005 4.65856e-005 -8.18505e-006
52
root  65.1535 39.6535 -3.061 -176.614 -86.943 176.286
RightUpLeg  7.26193 -9.01805 -3.71252
RightLeg  8.79725 -13.9842 3.095
RightFoot  -14.3287 -0.0638622 1.27799
RightToes  0.00048216 0.542163 -0.142577
Spine  8.8006 0.372718 10.041
Spine1  9.87962 2.01839 -3.65534
HEad  14.8341 0.097991 -4.87408
LeftShoulder1  7.47095 -10.9471 -45.0423
LeftArm  -10.1099 9.55848 -27.4098
LeftForeArm  24.6185 -16.6016 -4.17882
LeftHand  -0.25398 0.0180481 5.50724
RightShoulder  5.17133 8.79715 36.0576
RightArm  -3.92871 -0.827166 31.3351
RightForeArm  -3.17242 26.5474 5.87302
RightHand  -0.756461 0.718356 -14.4325
LeftUpLeg  -20.9347 10.8931 -2.13658
LeftLeg  7.94239 11.3274 -3.01133
LeftFoot  2.70641 0.338715 -2.87641
LeftToes  1.06246e-005 4.65856e-005 -8.18505e-006
53
root  63.9278 39.3857 -3.13435 -173.889 -87.9281 173.168
RightUpLeg  9.1544 -9.91413 -4.2899
RightLeg  10.5783 -14.0527 2.65759
RightFoot  -16.252 -0.0271362 1.96584
RightToes  0.00048216 0.542163 -0.142577
Spine  8.46805 0.428629 9.70499
Spine1  10.202 2.21019 -4.17466
HEad  14.6708 -0.510856 -3.89754
LeftShoulder1  7.39143 -10.9163 -44.6415
LeftArm  -11.2483 9.68112 -26.8191
LeftForeArm  24.9418 -10.9965 -4.955
LeftHand  -0.25398 0.0180481 5.50724
RightShoulder  5.14287 8.75552 35.97
RightArm  -2.91492 -0.844727 32.3673
RightForeArm  -4.08966 26.2597 5.85309
RightHand  -0.963574 1.85985 -15.5594
LeftUpLeg  -20.6667 10.2068 -2.77306
LeftLeg  7.787 12.5936 -3.10975
LeftFoot  1.65271 0.227552 -2.08201
LeftToes  1.06246e-005 4.65856e-005 -8.18505e-006
54
root  62.5864 39.0817 -3.17235 -167.421 -88.1136 166.131
RightUpLeg  10.9052 -13.0558 -5.68446
RightLeg  13.513 -10.8085 1.50009
RightFoot  -18.2522 0.0771168 3.22146
RightToes  0.00048216 0.542163 -0.142577
Spine  8.01129 0.738055 8.96832
Spine1  10.5989 2.70468 -4.77706
HEad  14.9646 -1.03076 -2.86983
LeftShoulder1  7.32525 -10.8556 -44.4192
LeftArm  -11.091 9.93016 -26.0339
LeftForeArm  25.0929 -5.70358 -5.04023
LeftHand  -0.25398 0.0180481 5.50724
RightShoulder  5.09465 8.61263 36.0654
RightArm  -0.794826 -1.32943 33.4687
RightForeArm  -5.40037 25.0382 5.62997
RightHand  -1.17691 3.01672 -16.4501
LeftUpLeg  -20.3126 12.1443 -4.68778
LeftLeg  10.3607 10.5891 -1.4894
LeftFoot  2.03365 -0.117672 0.838893
LeftToes  1.06246e-005 4.65856e-005 -8.18505e-006
55
root  61.2156 38.8236 -3.19545 -153.99 -87.4464 151.87
RightUpLeg  12.0786 -16.8123 -7.86309
RightLeg  17.8579 -5.0495 -0.555082
RightFoot  -19.3115 0.38098 7.39691
RightToes  0.00048216 0.542163 -0.142577
Spine  8.0756 1.20383 7.10699
Spine1  10.8673 3.26043 -5.12483
HEad  15.3103 -1.21049 -1.89599
LeftShoulder1  7.39736 -10.8589 -44.8643
LeftArm  -10.3959 10.7138 -24.7415
LeftForeArm  25.4037 -2.36288 -4.87766
LeftHand  -0.25398 0.0180481 5.50724
RightShoulder  5.14812 8.51561 36.8274
RightArm  1.53762 -2.1562 34.1772
RightForeArm  -5.97662 23.2083 5.3189
RightHand  -1.22658 3.33992 -16.5104
LeftUpLeg  -19.6835 14.5059 -6.94399
LeftLeg  13.8193 8.14042 0.506154
LeftFoot  2.72629 -0.719978 5.7447
LeftToes  1.06246e-005 4.65856e-005 -8.18505e-006
56
root  59.91 38.7125 -3.22317 -139.249 -86.613 136.264
RightUpLeg  10.8235 -14.9613 -8.9608
RightLeg  25.3928 -4.87866 -2.99351
RightFoot  -16.9136 0.489053 12.9023
RightToes  0.00048216 0.542163 -0.142577
Spine  8.81059 1.48754 4.27779
Spine1  10.8711 3.38232 -4.92492
HEad  15.1731 -1.20871 -0.860211
LeftShoulder1  7.59485 -10.9785 -45.7143
LeftArm  -9.97261 11.8031 -23.35
LeftForeArm  25.8552 -1.49034 -4.85812
LeftHand  -0.25398 0.0180481 5.50724
RightShoulder  5.34988 8.59165 38.1767
RightArm  2.9789 -3.33197 34.5949
RightForeArm  -5.74852 21.1873 5.35522
RightHand  -1.16921 2.95486 -16.4521
LeftUpLeg  -18.7037 16.3105 -8.81179
LeftLeg  17.0374 6.41339 2.05146
LeftFoot  1.30082 -0.989613 8.83451
LeftToes  1.06246e-005 4.65856e-005 -8.18505e-006
57
root  58.6927 38.7772 -3.24346 -127.561 -86.0683 124.005
RightUpLeg  6.31514 -11.4986 -9.24397
RightLeg  36.7455 -7.24282 -6.03959
RightFoot  -8.95807 -0.292647 13.7617
RightToes  0.00048216 0.542163 -0.142577
Spine  9.80315 1.46204 1.67387
Spine1  10.6772 3.07854 -4.44532
HEad  14.4153 -1.18067 0.015092
LeftShoulder1  7.75981 -11.1438 -46.1974
LeftArm  -9.78223 12.6647 -22.7668
LeftForeArm  25.7436 -2.30193 -4.94223
LeftHand  -0.25398 0.0180481 5.50724
RightShoulder  5.61147 8.82762 39.3989
RightArm  4.23227 -5.16128 35.2042
RightForeArm  -5.79098 19.6381 5.74987
RightHand  -1.1199 2.44942 -16.7389
LeftUpLeg  -16.9821 17.0878 -9.45956
LeftLeg  18.9261 5.81968 2.58981
LeftFoot  -1.82795 -0.679912 8.21447
LeftToes  1.06246e-005 4.65856e-005 -8.18505e-006
58
root  57.5624 38.8936 -3.23373 -122.187 -85.6064 118.441
RightUpLeg  -0.38865 -9.28093 -9.29834
RightLeg  48.4417 -6.73864 -8.32324
RightFoot  1.63181 -0.904378 8.18965
RightToes  0.00048216 0.542163 -0.142577
Spine  10.6833 1.34031 -0.130658
Spine1  10.5385 2.7415 -4.24029
HEad  13.371 -0.943804 0.266652
LeftShoulder1  7.76555 -11.1889 -46.0859
LeftArm  -10.0449 12.9063 -23.2713
LeftForeArm  25.2992 -3.651 -4.97744
LeftHand  -0.25398 0.0180481 5.50724
RightShoulder  5.82041 9.08881 40.0789
RightArm  7.27877 -7.79706 36.0061
RightForeArm  -6.44707 19.4094 5.96744
RightHand  -1.05533 2.01403 -16.6729
LeftUpLeg  -14.8356 18.0739 -9.4115
LeftLeg  19.3851 5.03063 2.27409
LeftFoot  -4.58359 -0.33612 6.1867
LeftToes  1.06246e-005 4.65856e-005 -8.18505e-006
59
root  56.4868 39.0012 -3.18968 -122.622 -85.2373 118.927
RightUpLeg  -7.13137 -7.06545 -8.97651
RightLeg  56.7183 -4.37534 -7.56047
RightFoot  7.71705 -0.461175 2.87372
RightToes  0.00048216 0.542163 -0.142577
Spine  11.3569 1.21875 -1.30726
Spine1  10.5844 2.42003 -4.22842
HEad  12.4408 -0.334944 -0.150924
LeftShoulder1  7.66807 -11.0566 -45.9151
LeftArm  -10.6134 12.3422 -24.3489
LeftForeArm  25.2256 -5.01943 -4.95101
LeftHand  -0.25398 0.0180481 5.50724
RightShoulder  5.95222 9.24986 40.5039
RightArm  12.2372 -10.9209 36.4408
RightForeArm  -6.5665 20.7352 5.68091
RightHand  -0.963741 1.65188 -16.0092
LeftUpLeg  -12.722 18.68 -9.01705
LeftLeg  19.228 4.65955 1.73133
LeftFoot  -6.32065 -0.182874 5.07305
LeftToes  1.06246e-005 4.65856e-005 -8.18505e-006
60
root  55.3996 39.1992 -3.12501 -123.468 -85.5315 119.89
RightUpLeg  -12.5869 -5.44371 -8.14485
RightLeg  60.5417 -2.61024 -5.54654
RightFoot  7.35016 -0.358548 2.52845
RightToes  0.00048216 0.542163 -0.142577
Spine  12.0153 0.878557 -1.83954
Spine1  10.6641 1.8112 -3.7897
HEad  11.7099 0.500267 -0.749836
LeftShoulder1  7.619 -10.9116 -46.0838
LeftArm  -11.1488 11.0617 -25.5204
LeftForeArm  26.0347 -6.48548 -4.95975
LeftHand  -0.25398 0.0180481 5.50724
RightShoulder  6.00345 9.25536 40.8635
RightArm  16.8697 -14.0683 36.3939
RightForeArm  -5.51493 22.6906 5.29987
RightHand  -0.926586 1.50228 -15.7224
LeftUpLeg  -10.2478 16.9109 -7.86591
LeftLeg  18.3641 6.30177 1.27531
LeftFoot  -7.65119 -0.0991659 4.49722
LeftToes  1.06246e-005 4.65856e-005 -8.18505e-006
61
root  54.3041 39.424 -3.06939 -122.023 -86.5201 118.517
RightUpLeg  -16.7843 -4.80511 -6.83811
RightLeg  60.2327 -2.23726 -4.73734
RightFoot  4.38595 -0.6368 4.8151
RightToes  0.00048216 0.542163 -0.142577
Spine  12.9451 0.339528 -2.05813
Spine1  10.6355 0.868345 -2.76602
HEad  10.8802 1.20918 -1.02414
LeftShoulder1  7.67957 -10.9454 -46.349
LeftArm  -11.4826 9.48674 -26.8075
LeftForeArm  27.2763 -8.24917 -5.03178
LeftHand  -0.25398 0.0180481 5.50724
RightShoulder  5.93564 9.123 40.8208
RightArm  19.6791 -17.1153 36.4597
RightForeArm  -4.42026 24.2339 5.38639
RightHand  -0.939185 1.42207 -16.1112
LeftUpLeg  -7.61241 14.0329 -6.32547
LeftLeg  17.1999 8.47755 0.940181
LeftFoot  -9.22733 -0.00977186 3.49283
LeftToes  1.06246e-005 4.65856e-005 -8.18505e-006
62
root  53.2027 39.5726 -3.03742 -120.705 -87.562 117.229
RightUpLeg  -20.24 -4.58904 -5.21033
RightLeg  56.8896 -3.10446 -5.53353
RightFoot  2.29986 -0.57732 4.92334
RightToes  0.00048216 0.542163 -0.142577
Spine  14.0646 -0.140223 -2.49033
Spine1  10.5264 -0.135164 -1.43026
HEad  9.68781 1.9881 -0.995411
LeftShoulder1  7.78261 -11.1388 -46.3526
LeftArm  -11.4058 8.00652 -28.3418
LeftForeArm  27.7599 -10.4257 -5.04981
LeftHand  -0.25398 0.0180481 5.50724
RightShoulder  5.78779 8.9588 40.2865
RightArm  21.1949 -20.2418 36.8457
RightForeArm  -4.37175 25.373 5.66282
RightHand  -0.892311 1.03563 -16.1895
LeftUpLeg  -5.08341 11.6184 -4.80588
LeftLeg  16.191 10.0503 0.437962
LeftFoot  -10.7876 0.0539645 2.37633
LeftToes  1.06246e-005 4.65856e-005 -8.18505e-006
